<svg xmlns="http://www.w3.org/2000/svg" width="933.333" height="933.333" preserveAspectRatio="xMidYMid meet" version="1.0" viewBox="0 0 700 700"><metadata>Created by potrace 1.14, written by Peter Selinger 2001-2017</metadata><g fill="#000" stroke="none"><path d="M4680 6345 c-11 -14 -178 -261 -478 -705 -51 -74 -96 -142 -102 -150 -6 -8 -78 -114 -160 -235 -81 -121 -233 -345 -337 -498 -103 -152 -195 -288 -203 -301 -18 -27 -173 -256 -275 -406 -73 -107 -275 -405 -379 -560 -32 -47 -64 -94 -72 -105 -8 -11 -63 -92 -122 -180 -186 -277 -423 -626 -487 -720 -34 -49 -129 -189 -210 -310 -82 -121 -184 -272 -227 -335 -43 -63 -82 -122 -88 -130 -6 -8 -36 -53 -68 -100 -32 -47 -138 -204 -237 -350 -98 -146 -191 -283 -206 -305 -15 -22 -26 -42 -24 -44 5 -4 1306 -3 1310 1 3 3 275 403 513 756 64 95 122 180 127 190 6 9 12 19 15 22 3 3 34 48 70 100 35 52 100 149 145 215 45 66 144 212 220 325 76 113 175 259 220 325 167 246 344 506 488 720 163 241 233 345 552 815 117 173 280 414 362 535 81 121 199 294 260 385 62 91 117 172 123 180 6 8 45 67 88 130 43 63 145 214 227 335 82 121 177 262 212 312 l63 93 -656 2 c-428 2 -658 0 -664 -7z" transform="translate(0.000000,700.000000) scale(0.100000,-0.100000)"/><path d="M1007 6338 c4 -7 38 -58 75 -113 37 -55 73 -107 78 -115 6 -8 36 -53 68 -100 32 -47 119 -175 192 -285 74 -110 137 -202 140 -205 3 -3 52 -75 109 -160 57 -85 145 -216 196 -290 50 -74 149 -220 220 -325 71 -104 176 -260 234 -345 57 -85 150 -222 205 -303 56 -82 105 -150 110 -150 5 -1 42 45 81 103 265 393 522 771 561 827 19 27 20 25 -95 193 -47 70 -90 134 -96 143 -5 9 -68 102 -140 207 -329 482 -590 868 -608 898 l-19 32 -660 0 c-525 0 -658 -3 -651 -12z" transform="translate(0.000000,700.000000) scale(0.100000,-0.100000)"/><path d="M4348 3303 c-8 -10 -67 -97 -132 -193 -210 -313 -496 -734 -505 -743 -6 -6 34 -73 96 -166 58 -86 142 -210 187 -276 45 -66 84 -121 89 -123 4 -2 7 -8 7 -14 0 -6 14 -27 30 -48 17 -21 30 -42 30 -47 0 -6 9 -18 20 -28 11 -10 20 -24 20 -31 0 -7 3 -14 8 -16 4 -1 53 -70 108 -153 276 -408 341 -503 360 -529 l20 -28 657 -2 c361 0 656 1 654 4 -3 7 -206 308 -326 483 -106 156 -306 452 -586 867 -87 129 -161 237 -164 240 -3 3 -24 32 -45 65 -50 77 -60 91 -138 205 -36 52 -131 194 -213 315 -81 121 -151 223 -154 228 -4 4 -14 -1 -23 -10z" transform="translate(0.000000,700.000000) scale(0.100000,-0.100000)"/></g></svg>