<svg xmlns="http://www.w3.org/2000/svg" width="19.261" height="19.261" viewBox="0 0 19.261 19.261">
  <g id="instagram" transform="translate(0 0)">
    <path id="Path_589" data-name="Path 589" d="M10.788,5.838A4.942,4.942,0,1,0,15.73,10.78a4.942,4.942,0,0,0-4.942-4.942Zm0,8.15A3.208,3.208,0,1,1,14,10.78,3.207,3.207,0,0,1,10.788,13.988Z" transform="translate(-1.154 -1.153)"/>
    <path id="Path_590" data-name="Path 590" d="M13.6.061c-1.772-.083-6.161-.079-7.935,0A5.756,5.756,0,0,0,1.625,1.619C-.227,3.471.01,5.967.01,9.627c0,3.746-.209,6.184,1.616,8.009,1.859,1.859,4.392,1.616,8.009,1.616,3.711,0,4.992,0,6.3-.506,1.784-.693,3.131-2.287,3.262-5.152.083-1.773.079-6.161,0-7.935-.159-3.381-1.973-5.432-5.6-5.6Zm2.8,16.349c-1.214,1.214-2.9,1.106-6.8,1.106-4.013,0-5.622.059-6.8-1.118-1.352-1.346-1.108-3.507-1.108-6.784,0-4.434-.455-7.627,4-7.855,1.022-.036,1.323-.048,3.9-.048l.036.024c4.277,0,7.632-.448,7.834,4,.046,1.015.056,1.32.056,3.89,0,3.966.075,5.585-1.119,6.784Z" transform="translate(0 0)"/>
    <circle id="Ellipse_770" data-name="Ellipse 770" cx="1.155" cy="1.155" r="1.155" transform="translate(13.617 3.335)"/>
  </g>
</svg>
