<svg id="linkedin" xmlns="http://www.w3.org/2000/svg" width="14.979" height="14.979" viewBox="0 0 14.979 14.979">
  <path id="Path_583" data-name="Path 583" d="M18.166,17.826h0V12.332c0-2.687-.579-4.758-3.72-4.758a3.261,3.261,0,0,0-2.938,1.615h-.044V7.825H8.489v10h3.1V12.873c0-1.3.247-2.564,1.862-2.564,1.591,0,1.615,1.488,1.615,2.648v4.869Z" transform="translate(-3.191 -2.847)"/>
  <path id="Path_584" data-name="Path 584" d="M.4,7.977H3.5v10H.4Z" transform="translate(-0.149 -2.999)"/>
  <path id="Path_585" data-name="Path 585" d="M1.8,0A1.807,1.807,0,1,0,3.6,1.8,1.8,1.8,0,0,0,1.8,0Z"/>
</svg>
